<svg width="512" height="512" xmlns="http://www.w3.org/2000/svg" xml:space="preserve" version="1.1">

 <g>
  <title>Layer 1</title>
  <polygon id="svg_2" points="146.32,342.88 146.32,264.72 244,264.72 "/>
  <path id="svg_3" d="m153.84,280l204.16,0c36.24,0 65.92,-29.68 65.92,-65.92l0,-76.16c0,-36.24 -29.68,-65.92 -65.92,-65.92l-204.16,0c-36.24,0 -65.92,29.68 -65.92,65.92l0,76.16c0,36.24 29.68,65.92 65.92,65.92z"/>
  <g id="svg_4">
   <path id="svg_5" fill="#FFFFFF" d="m147.12,188.48c3.76,2.48 10.4,5.04 16.8,5.04c9.28,0 13.6,-4.64 13.6,-10.4c0,-6.08 -3.6,-9.44 -13.04,-12.88c-12.56,-4.48 -18.56,-11.44 -18.56,-19.84c0,-11.28 9.12,-20.56 24.16,-20.56c7.12,0 13.28,2 17.2,4.32l-3.2,9.28c-2.72,-1.76 -7.84,-4.08 -14.32,-4.08c-7.52,0 -11.76,4.32 -11.76,9.52c0,5.76 4.16,8.4 13.28,11.84c12.16,4.64 18.4,10.72 18.4,21.12c0,12.32 -9.52,20.96 -26.16,20.96c-7.68,0 -14.8,-1.92 -19.68,-4.8l3.28,-9.52z"/>
   <path id="svg_6" fill="#FFFFFF" d="m206.16,150.48c0,-7.2 -0.16,-13.2 -0.56,-18.96l11.12,0l0.56,11.28l0.4,0c3.92,-6.64 10.4,-12.88 22,-12.88c9.52,0 16.8,5.76 19.84,14.08l0.32,0c2.16,-3.92 4.88,-6.96 7.84,-9.12c4.24,-3.2 8.8,-4.96 15.52,-4.96c9.28,0 23.04,6.08 23.04,30.4l0,41.28l-12.48,0l0,-39.68c0,-13.44 -4.96,-21.6 -15.2,-21.6c-7.2,0 -12.88,5.36 -15.04,11.6c-0.56,1.76 -1.04,4.08 -1.04,6.4l0,43.28l-12.48,0l0,-42c0,-11.12 -4.88,-19.28 -14.64,-19.28c-7.92,0 -13.76,6.4 -15.76,12.72c-0.72,1.92 -1.04,4.08 -1.04,6.24l0,42.24l-12.48,0l0,-51.04l0.08,0z"/>
   <path id="svg_7" fill="#FFFFFF" d="m325.2,188.48c3.76,2.48 10.4,5.04 16.8,5.04c9.28,0 13.6,-4.64 13.6,-10.4c0,-6.08 -3.6,-9.44 -13.04,-12.88c-12.56,-4.48 -18.56,-11.44 -18.56,-19.84c0,-11.28 9.12,-20.56 24.16,-20.56c7.12,0 13.28,2 17.2,4.32l-3.2,9.28c-2.72,-1.76 -7.84,-4.08 -14.32,-4.08c-7.52,0 -11.76,4.32 -11.76,9.52c0,5.76 4.16,8.4 13.28,11.84c12.16,4.64 18.4,10.72 18.4,21.12c0,12.32 -9.52,20.96 -26.16,20.96c-7.68,0 -14.8,-1.92 -19.68,-4.8l3.28,-9.52z"/>
   <path id="svg_8" fill="#FFFFFF" d="m435.84,368.16l-164.88,0c-8.24,0 -14.96,-6.72 -14.96,-14.96l0,-104.96c0,-8.24 6.72,-14.96 14.96,-14.96l164.88,0c8.24,0 14.96,6.72 14.96,14.96l0,104.88c0,8.32 -6.72,15.04 -14.96,15.04z"/>
   <polygon id="svg_9" fill="#FFFFFF" points="405.84,413.12 405.84,353.2 330.88,353.2  "/>
  </g>
  <rect id="svg_10" height="14.96" width="14.96" y="278.24" x="345.92"/>
  <rect id="svg_11" height="14.96" width="14.96" y="278.24" x="315.92"/>
  <rect id="svg_12" height="14.96" width="14.96" y="278.24" x="285.92"/>
  <rect id="svg_13" height="14.96" width="14.96" y="278.24" x="375.84"/>
  <rect id="svg_14" height="14.96" width="14.96" y="278.24" x="405.84"/>
  <rect id="svg_15" height="14.96" width="14.96" y="308.24" x="345.92"/>
  <rect id="svg_16" height="14.96" width="14.96" y="308.24" x="375.84"/>
  <rect id="svg_17" height="14.96" width="14.96" y="308.24" x="405.84"/>
  <g id="svg_18"/>
  <g id="svg_19"/>
  <g id="svg_20"/>
  <g id="svg_21"/>
  <g id="svg_22"/>
  <g id="svg_23"/>
  <g id="svg_24"/>
  <g id="svg_25"/>
  <g id="svg_26"/>
  <g id="svg_27"/>
  <g id="svg_28"/>
  <g id="svg_29"/>
  <g id="svg_30"/>
  <g id="svg_31"/>
  <g id="svg_32"/>
 </g>
</svg>
