<svg xmlns="http://www.w3.org/2000/svg" class="type w-auto h-7" width="800" height="220" viewBox="0 0 800 220" fill="none"><path d="M99.8603 33.2197H78.8286V2.58711C78.8286 0.62953 76.4191 -0.300929 75.0994 1.14914L47.5657 31.3105C46.3065 32.688 47.2872 34.8873 49.1519 34.8873H70.1835V65.5199C70.1835 67.4775 72.593 68.408 73.9127 66.9578L101.434 36.7844C102.693 35.4069 101.713 33.2076 99.8482 33.2076L99.8603 33.2197Z" fill="#f49643"/><path d="M473.184 217.597H418.267C377.491 217.597 343.659 184.946 343.264 144.052C342.862 102.762 376.246 69.042 417.326 69.042H473.184C476.814 69.042 479.75 71.994 479.75 75.6279V101.189C479.75 104.831 476.806 107.775 473.184 107.775H417.92C398.52 107.775 382.264 123.17 381.894 142.626C381.515 162.531 397.555 178.849 417.326 178.849H473.184C476.814 178.849 479.75 181.801 479.75 185.434V210.996C479.75 214.637 476.806 217.581 473.184 217.581V217.597Z" fill="#ffffff"/><path d="M313.283 217.546H287.803C284.171 217.546 281.23 214.594 281.23 210.953V143.16C281.23 123.697 265.877 107.402 246.478 107.03C226.63 106.651 210.359 122.736 210.359 142.563V210.953C210.359 214.594 207.416 217.546 203.784 217.546H178.304C174.673 217.546 171.729 214.594 171.729 210.953V143.508C171.729 102.614 204.287 68.6849 245.064 68.2897C286.235 67.8868 319.859 101.367 319.859 142.563V210.953C319.859 214.594 316.915 217.546 313.283 217.546Z" fill="#ffffff"/><path d="M73.5423 218.506C32.765 218.111 0.208008 184.174 0.208008 143.287V119.774C0.208008 116.133 3.15157 113.188 6.77503 113.188H32.2629C35.8938 113.188 38.8298 116.14 38.8298 119.774V143.636C38.8298 163.099 54.181 179.394 73.5807 179.766C93.4287 180.145 109.699 164.06 109.699 144.233V119.836C109.699 116.195 112.643 113.25 116.266 113.25H141.754C145.385 113.25 148.321 116.203 148.321 119.836V144.233C148.321 185.437 114.698 218.909 73.5269 218.506H73.5423Z" fill="#ffffff"/><path d="M141.771 68.2861H116.275C112.648 68.2861 109.708 71.2347 109.708 74.872V89.1828C109.708 92.8202 112.648 95.7687 116.275 95.7687H141.771C145.397 95.7687 148.338 92.8202 148.338 89.1828V74.872C148.338 71.2347 145.397 68.2861 141.771 68.2861Z" fill="#f49643"/><path d="M429.395 129.5H382.568C378.941 129.5 376 132.449 376 136.086V150.397C376 154.034 378.941 156.983 382.568 156.983H429.395C433.024 156.983 435.963 154.034 435.963 150.397V136.086C435.963 132.449 433.024 129.5 429.395 129.5Z" fill="#ffffff"/><path d="M32.0624 68.2861H6.56701C2.94016 68.2861 0 71.2347 0 74.872V89.1828C0 92.8202 2.94016 95.7687 6.56701 95.7687H32.0624C35.6893 95.7687 38.6296 92.8202 38.6296 89.1828V74.872C38.6296 71.2347 35.6893 68.2861 32.0624 68.2861Z" fill="#f49643"/><path d="M631.256 217.597H576.338C535.562 217.597 501.73 184.946 501.336 144.052C500.936 102.762 534.32 69.042 575.397 69.042H631.256C634.888 69.042 637.821 71.994 637.821 75.6279V101.189C637.821 104.831 634.88 107.775 631.256 107.775H575.992C556.592 107.775 540.336 123.17 539.965 142.626C539.586 162.531 555.626 178.849 575.397 178.849H631.256C634.888 178.849 637.821 181.801 637.821 185.434V210.996C637.821 214.637 634.88 217.581 631.256 217.581V217.597Z" fill="#ffffff"/><path d="M586.896 129.5H540.067C536.44 129.5 533.499 132.449 533.499 136.086V150.397C533.499 154.034 536.44 156.983 540.067 156.983H586.896C590.523 156.983 593.464 154.034 593.464 150.397V136.086C593.464 132.449 590.523 129.5 586.896 129.5Z" fill="#ffffff"/><path d="M723.784 217.62H667.901C664.269 217.62 661.333 214.668 661.333 211.034V75.6513C661.333 72.0097 664.277 69.0654 667.901 69.0654H724.728C765.813 69.0654 799.189 102.785 798.786 144.075C798.394 184.97 764.554 217.62 723.784 217.62ZM703.864 178.88H724.133C743.53 178.88 759.786 163.484 760.157 144.029C760.536 124.124 744.498 107.806 724.728 107.806H703.864C700.232 107.806 697.296 110.758 697.296 114.392V172.286C697.296 175.928 700.24 178.872 703.864 178.872V178.88Z" fill="#ffffff"/></svg>
